<svg width="28" height="28" viewBox="0 0 28 28" fill="none" xmlns="http://www.w3.org/2000/svg">
<path d="M14 27.3334C12.1777 27.3334 10.4555 26.9832 8.83329 26.2827C7.21107 25.5832 5.79463 24.6276 4.58396 23.4161C3.3724 22.2054 2.41685 20.789 1.71729 19.1667C1.01685 17.5445 0.666626 15.8223 0.666626 14.0001C0.666626 12.1556 1.01685 10.4281 1.71729 8.81741C2.41685 7.20586 3.3724 5.79475 4.58396 4.58408C5.79463 3.37253 7.21107 2.41653 8.83329 1.71608C10.4555 1.01653 12.1777 0.666748 14 0.666748C15.8444 0.666748 17.572 1.01653 19.1826 1.71608C20.7942 2.41653 22.2053 3.37253 23.416 4.58408C24.6275 5.79475 25.5831 7.20586 26.2826 8.81741C26.9831 10.4281 27.3333 12.1556 27.3333 14.0001V15.9334C27.3333 17.2445 26.8835 18.361 25.984 19.2827C25.0835 20.2054 23.9777 20.6667 22.6666 20.6667C21.8666 20.6667 21.1222 20.489 20.4333 20.1334C19.7444 19.7779 19.1777 19.3112 18.7333 18.7334C18.1333 19.3334 17.428 19.8059 16.6173 20.1507C15.8057 20.4947 14.9333 20.6667 14 20.6667C12.1555 20.6667 10.5835 20.0165 9.28396 18.7161C7.98351 17.4165 7.33329 15.8445 7.33329 14.0001C7.33329 12.1556 7.98351 10.5832 9.28396 9.28275C10.5835 7.98319 12.1555 7.33341 14 7.33341C15.8444 7.33341 17.4168 7.98319 18.7173 9.28275C20.0168 10.5832 20.6666 12.1556 20.6666 14.0001V15.9334C20.6666 16.5779 20.8666 17.0832 21.2666 17.4494C21.6666 17.8165 22.1333 18.0001 22.6666 18.0001C23.2 18.0001 23.6666 17.8165 24.0666 17.4494C24.4666 17.0832 24.6666 16.5779 24.6666 15.9334V14.0001C24.6666 11.089 23.6164 8.58319 21.516 6.48275C19.4164 4.38319 16.9111 3.33341 14 3.33341C11.0888 3.33341 8.58307 4.38319 6.48263 6.48275C4.38307 8.58319 3.33329 11.089 3.33329 14.0001C3.33329 16.9112 4.38307 19.4165 6.48263 21.5161C8.58307 23.6165 11.0888 24.6667 14 24.6667H20.6666V27.3334H14ZM14 18.0001C15.1111 18.0001 16.0555 17.6112 16.8333 16.8334C17.6111 16.0556 18 15.1112 18 14.0001C18 12.889 17.6111 11.9445 16.8333 11.1667C16.0555 10.389 15.1111 10.0001 14 10.0001C12.8888 10.0001 11.9444 10.389 11.1666 11.1667C10.3888 11.9445 9.99996 12.889 9.99996 14.0001C9.99996 15.1112 10.3888 16.0556 11.1666 16.8334C11.9444 17.6112 12.8888 18.0001 14 18.0001Z" fill="#FF9F0E"/>
</svg>
