<svg width="173.004089" height="24.000000" viewBox="0 0 173.004 24" fill="none" xmlns="http://www.w3.org/2000/svg" xmlns:xlink="http://www.w3.org/1999/xlink">
	<desc>
			Created with Pixso.
	</desc>
	<defs/>
	<path id="more services" d="M89.18 5.49Q89.08 5.7 89.08 5.96Q89.08 6.23 89.19 6.44Q89.24 6.54 89.32 6.62Q89.35 6.65 89.37 6.68Q89.61 6.89 90.04 6.89Q90.46 6.89 90.7 6.68Q90.73 6.65 90.76 6.62Q90.84 6.53 90.89 6.43Q91 6.23 91 5.96Q91 5.71 90.9 5.51Q90.84 5.39 90.76 5.29Q90.72 5.26 90.68 5.22Q90.44 5.02 90.04 5.02Q89.63 5.02 89.39 5.22Q89.35 5.26 89.32 5.29Q89.24 5.39 89.18 5.49ZM2.8 9.54L2.75 8.49L1.22 8.49L1.22 18L2.84 18L2.84 11.05Q3.1 10.45 3.55 10.12Q4.13 9.69 5.03 9.69Q6.02 9.69 6.53 10.19Q7.06 10.7 7.06 11.76L7.06 18L8.7 18L8.7 11.68Q8.77 11 9.12 10.52Q9.24 10.36 9.39 10.23Q9.56 10.08 9.75 9.97Q10.24 9.69 10.89 9.69Q11.99 9.69 12.46 10.19Q12.92 10.7 12.92 11.72L12.92 18L14.55 18L14.55 11.62Q14.52 9.87 13.63 9.04Q12.84 8.31 11.37 8.31Q10.33 8.31 9.57 8.73Q9.04 9.03 8.65 9.45Q8.48 9.63 8.34 9.84Q8.08 9.29 7.66 8.94Q6.9 8.31 5.62 8.31Q4.5 8.31 3.66 8.8Q3.18 9.09 2.8 9.54ZM18.02 10.64Q17.47 11.75 17.47 13.15L17.47 13.27Q17.47 15.21 18.39 16.48Q18.52 16.66 18.67 16.83Q19.15 17.36 19.73 17.68Q20.64 18.17 21.8 18.17Q22.85 18.17 23.69 17.77Q23.89 17.67 24.08 17.56Q24.41 17.35 24.7 17.08Q25.25 16.57 25.6 15.84Q26.13 14.73 26.13 13.35L26.13 13.23Q26.13 11.25 25.18 9.96Q25.06 9.8 24.93 9.65Q24.46 9.13 23.88 8.81Q22.97 8.31 21.79 8.31Q20.8 8.31 19.99 8.68Q19.76 8.78 19.55 8.92Q19.3 9.07 19.08 9.26Q18.43 9.81 18.02 10.64ZM32.86 9.88Q33.3 9.88 33.66 9.94L33.66 8.43Q33.42 8.31 32.94 8.31Q32.25 8.31 31.7 8.6Q31.1 8.91 30.68 9.58L30.65 8.49L29.07 8.49L29.07 18L30.69 18L30.69 11.25Q30.94 10.65 31.39 10.32Q31.96 9.88 32.86 9.88ZM37.62 17.63Q38.57 18.17 39.84 18.17Q41.26 18.17 42.26 17.52Q42.94 17.08 43.42 16.33L42.43 15.56Q42.04 16.07 41.53 16.4Q41.46 16.45 41.38 16.49Q40.79 16.84 39.93 16.84Q39.25 16.84 38.71 16.58Q38.28 16.36 37.93 15.98Q37.81 15.85 37.72 15.72Q37.13 14.91 37.1 13.71L43.55 13.71L43.55 13.03Q43.55 10.75 42.52 9.53Q42.21 9.17 41.84 8.92Q40.94 8.31 39.64 8.31Q39.14 8.31 38.67 8.43Q38.08 8.58 37.53 8.94Q37.27 9.11 37.03 9.32Q36.41 9.87 36.02 10.68Q35.48 11.79 35.48 13.21L35.48 13.5Q35.48 15.26 36.31 16.43Q36.48 16.68 36.69 16.9Q37.11 17.34 37.62 17.63ZM57.05 14.8Q57.22 15.09 57.22 15.47Q57.22 15.73 57.12 15.95Q56.99 16.25 56.66 16.47Q56.1 16.84 55.18 16.84Q54.18 16.84 53.57 16.36Q53.31 16.16 53.15 15.9Q52.94 15.54 52.91 15.07L51.29 15.07Q51.29 15.39 51.36 15.7Q51.48 16.19 51.78 16.64Q51.87 16.76 51.97 16.88Q52.43 17.43 53.16 17.77Q54.04 18.17 55.18 18.17Q56.81 18.17 57.83 17.4Q58.34 17.02 58.59 16.5Q58.85 15.99 58.85 15.36Q58.85 14.63 58.52 14.11Q58.5 14.09 58.48 14.06Q58.12 13.53 57.36 13.15Q56.61 12.77 55.39 12.5Q54.17 12.23 53.71 11.93Q53.5 11.8 53.39 11.62Q53.24 11.38 53.24 11.04Q53.24 10.74 53.36 10.5Q53.48 10.23 53.74 10.03Q54.24 9.65 55.13 9.65Q55.81 9.65 56.31 9.95Q56.44 10.03 56.56 10.13Q56.93 10.44 57.06 10.84Q57.12 11.05 57.12 11.28L58.76 11.28Q58.76 10.64 58.51 10.11Q58.26 9.57 57.75 9.14Q57.67 9.08 57.59 9.02Q56.62 8.31 55.13 8.31Q53.77 8.31 52.84 8.94Q52.72 9.02 52.6 9.12Q51.99 9.62 51.76 10.26Q51.61 10.65 51.61 11.1Q51.61 11.7 51.87 12.16Q51.91 12.24 51.96 12.31Q52.31 12.82 53.03 13.19Q53.76 13.56 54.99 13.82Q56.23 14.08 56.72 14.45Q56.93 14.6 57.05 14.8ZM63.59 17.63Q64.55 18.17 65.81 18.17Q67.23 18.17 68.23 17.52Q68.91 17.08 69.4 16.33L68.4 15.56Q68.01 16.07 67.5 16.4Q67.43 16.45 67.36 16.49Q66.76 16.84 65.9 16.84Q65.23 16.84 64.68 16.58Q64.25 16.36 63.9 15.98Q63.79 15.85 63.69 15.72Q63.11 14.91 63.08 13.71L69.52 13.71L69.52 13.03Q69.52 10.75 68.49 9.53Q68.19 9.17 67.81 8.92Q66.92 8.31 65.61 8.31Q65.11 8.31 64.65 8.43Q64.05 8.58 63.5 8.94Q63.24 9.11 63.01 9.32Q62.39 9.87 61.99 10.68Q61.45 11.79 61.45 13.21L61.45 13.5Q61.45 15.26 62.28 16.43Q62.45 16.68 62.66 16.9Q63.08 17.34 63.59 17.63ZM76.1 9.88Q76.53 9.88 76.9 9.94L76.9 8.43Q76.65 8.31 76.18 8.31Q75.48 8.31 74.94 8.6Q74.33 8.91 73.91 9.58L73.88 8.49L72.3 8.49L72.3 18L73.93 18L73.93 11.25Q74.18 10.65 74.62 10.32Q75.19 9.88 76.1 9.88ZM99.1 16.66Q98.66 16.84 98.15 16.84Q97.34 16.84 96.77 16.47Q96.46 16.27 96.22 15.96Q95.54 15.07 95.54 13.42L95.54 13.12Q95.54 11.43 96.22 10.54Q96.48 10.2 96.81 9.99Q97.37 9.65 98.14 9.65Q98.71 9.65 99.17 9.87Q99.45 10.01 99.69 10.24Q99.93 10.46 100.08 10.72Q100.35 11.17 100.39 11.75L101.93 11.75Q101.89 10.81 101.47 10.09Q101.21 9.63 100.8 9.27Q100.5 8.99 100.15 8.8Q99.29 8.31 98.14 8.31Q96.91 8.31 95.99 8.84Q95.94 8.87 95.89 8.91Q95.59 9.09 95.34 9.33Q94.78 9.84 94.42 10.59Q93.91 11.67 93.91 13.06L93.91 13.33Q93.91 15.5 94.98 16.78Q95.02 16.83 95.06 16.87Q95.44 17.31 95.91 17.59Q96.85 18.17 98.15 18.17Q98.62 18.17 99.06 18.07Q99.53 17.96 99.98 17.73Q100.68 17.38 101.15 16.83Q101.27 16.7 101.37 16.55Q101.79 15.96 101.9 15.3Q101.92 15.15 101.93 15L100.39 15Q100.36 15.32 100.24 15.61Q100.05 16.01 99.67 16.32Q99.4 16.53 99.1 16.66ZM106.39 17.63Q107.34 18.17 108.61 18.17Q110.03 18.17 111.03 17.52Q111.71 17.08 112.19 16.33L111.2 15.56Q110.8 16.07 110.29 16.4Q110.22 16.45 110.15 16.49Q109.55 16.84 108.69 16.84Q108.02 16.84 107.48 16.58Q107.04 16.36 106.69 15.98Q106.58 15.85 106.48 15.72Q105.9 14.91 105.87 13.71L112.31 13.71L112.31 13.03Q112.31 10.75 111.29 9.53Q110.98 9.17 110.61 8.92Q109.71 8.31 108.4 8.31Q107.91 8.31 107.44 8.43Q106.84 8.58 106.3 8.94Q106.03 9.11 105.8 9.32Q105.18 9.87 104.79 10.68Q104.25 11.79 104.25 13.21L104.25 13.5Q104.25 15.26 105.07 16.43Q105.25 16.68 105.46 16.9Q105.88 17.34 106.39 17.63ZM120.46 14.8Q120.63 15.09 120.63 15.47Q120.63 15.73 120.54 15.95Q120.4 16.25 120.07 16.47Q119.52 16.84 118.59 16.84Q117.59 16.84 116.98 16.36Q116.72 16.16 116.57 15.9Q116.35 15.54 116.33 15.07L114.7 15.07Q114.7 15.39 114.77 15.7Q114.89 16.19 115.2 16.64Q115.28 16.76 115.38 16.88Q115.84 17.43 116.57 17.77Q117.45 18.17 118.59 18.17Q120.22 18.17 121.24 17.4Q121.75 17.02 122.01 16.5Q122.26 15.99 122.26 15.36Q122.26 14.63 121.93 14.11Q121.91 14.09 121.89 14.06Q121.53 13.53 120.77 13.15Q120.02 12.77 118.8 12.5Q117.58 12.23 117.12 11.93Q116.92 11.8 116.8 11.62Q116.65 11.38 116.65 11.04Q116.65 10.74 116.77 10.5Q116.89 10.23 117.15 10.03Q117.65 9.65 118.54 9.65Q119.22 9.65 119.72 9.95Q119.85 10.03 119.97 10.13Q120.34 10.44 120.47 10.84Q120.54 11.05 120.54 11.28L122.17 11.28Q122.17 10.64 121.93 10.11Q121.67 9.57 121.16 9.14Q121.09 9.08 121.01 9.02Q120.03 8.31 118.54 8.31Q117.18 8.31 116.25 8.94Q116.13 9.02 116.01 9.12Q115.4 9.62 115.17 10.26Q115.03 10.65 115.03 11.1Q115.03 11.7 115.28 12.16Q115.32 12.24 115.37 12.31Q115.72 12.82 116.44 13.19Q117.17 13.56 118.4 13.82Q119.64 14.08 120.14 14.45Q120.34 14.6 120.46 14.8ZM84.94 8.49L82.59 15.79L80.17 8.49L78.51 8.49L81.95 18L83.19 18L86.6 8.49L84.94 8.49ZM89.21 18L90.84 18L90.84 8.49L89.21 8.49L89.21 18ZM19.84 15.89Q19.11 14.93 19.11 13.35Q19.11 11.56 19.84 10.6Q20.22 10.12 20.71 9.88Q21.19 9.65 21.79 9.65Q22.41 9.65 22.91 9.9Q23.39 10.14 23.76 10.62Q24.5 11.59 24.5 13.15Q24.5 14.9 23.77 15.87Q23.43 16.33 22.97 16.58Q22.45 16.84 21.8 16.84Q21.16 16.84 20.65 16.58Q20.19 16.34 19.84 15.89ZM38.72 9.83Q39.14 9.65 39.64 9.65Q40.32 9.65 40.81 9.95Q41.06 10.1 41.25 10.33Q41.85 11.01 41.92 12.25L41.92 12.37L37.16 12.37Q37.32 11.08 37.98 10.36Q38.31 10.01 38.72 9.83ZM64.69 9.83Q65.11 9.65 65.61 9.65Q66.29 9.65 66.79 9.95Q67.03 10.1 67.23 10.33Q67.82 11.01 67.89 12.25L67.89 12.37L63.13 12.37Q63.29 11.08 63.96 10.36Q64.29 10.01 64.69 9.83ZM107.48 9.83Q107.9 9.65 108.4 9.65Q109.09 9.65 109.58 9.95Q109.82 10.1 110.02 10.33Q110.62 11.01 110.69 12.25L110.69 12.37L105.92 12.37Q106.08 11.08 106.75 10.36Q107.08 10.01 107.48 9.83Z" fill="#FF9F0E" fill-opacity="1.000000" fill-rule="evenodd"/>
	<path id="Arrow 1" d="M169.58 11L165.63 7.05C165.24 6.65 165.24 6.03 165.63 5.63C166.03 5.24 166.65 5.24 167.05 5.63L172.7 11.29C173.1 11.68 173.1 12.31 172.7 12.7L167.05 18.36C166.65 18.75 166.03 18.75 165.63 18.36C165.24 17.96 165.24 17.34 165.63 16.94L169.58 13L132 13L132 11L169.58 11Z" fill="#FF9F0E" fill-opacity="1.000000" fill-rule="evenodd"/>
</svg>
