<svg width="34" height="34" viewBox="0 0 34 34" fill="none" xmlns="http://www.w3.org/2000/svg">
<path d="M17 23.6666C18.7682 23.6666 20.4638 22.9642 21.7141 21.714C22.9643 20.4637 23.6667 18.768 23.6667 16.9999C23.6667 15.2318 22.9643 13.5361 21.7141 12.2859C20.4638 11.0356 18.7682 10.3333 17 10.3333C15.2319 10.3333 13.5362 11.0356 12.286 12.2859C11.0358 13.5361 10.3334 15.2318 10.3334 16.9999C10.3334 18.768 11.0358 20.4637 12.286 21.714C13.5362 22.9642 15.2319 23.6666 17 23.6666Z" stroke="#FF9F0E" stroke-width="2.625" stroke-linecap="round" stroke-linejoin="round"/>
<path d="M2 23.6667V10.3333C2 8.1232 2.87797 6.00358 4.44078 4.44078C6.00358 2.87797 8.1232 2 10.3333 2H23.6667C25.8768 2 27.9964 2.87797 29.5592 4.44078C31.122 6.00358 32 8.1232 32 10.3333V23.6667C32 25.8768 31.122 27.9964 29.5592 29.5592C27.9964 31.122 25.8768 32 23.6667 32H10.3333C8.1232 32 6.00358 31.122 4.44078 29.5592C2.87797 27.9964 2 25.8768 2 23.6667Z" stroke="#FF9F0E" stroke-width="2.625"/>
<path d="M26.1666 7.85104L26.1841 7.83179" stroke="#FF9F0E" stroke-width="2.625" stroke-linecap="round" stroke-linejoin="round"/>
</svg>
