<svg width="60" height="60" viewBox="0 0 60 60" fill="none" xmlns="http://www.w3.org/2000/svg">
<path d="M29.6166 28.4402C27.1462 24.4356 23.0174 25.4363 17.5371 23.5361C9.55384 20.8059 5.90363 24.1314 7.01983 27.9545C8.03644 31.6936 13.3008 32.6112 15.197 36.2916C17.3454 39.8645 15.3883 44.6179 18.2468 47.5089C21.0057 50.316 25.8149 49.0885 27.6051 40.9925C28.7654 35.5671 31.9345 32.6364 29.6166 28.4402Z" fill="#FF6E9F"/>
<path d="M26.9896 16.9127C25.3826 20.8185 21.9257 22.8453 19.3678 21.6446C16.8098 20.4439 16.0554 16.1409 17.7625 12.3196C19.3695 8.41381 22.7263 6.3026 25.3843 7.58769C28.0423 8.87277 28.5966 13.007 26.9896 16.9127Z" fill="#FF6E9F"/>
<path d="M38.193 37.1404C33.9573 36.3988 30.4146 38.1286 30.1847 40.9226C29.9548 43.7166 33.2394 46.4866 37.4505 47.0503C41.6862 47.7919 45.229 46.062 45.4588 43.268C45.6887 40.474 42.4042 37.704 38.193 37.1404Z" fill="#FF6E9F"/>
<path d="M39.6097 22.0553C36.26 24.7498 31.9166 25.0293 29.8559 22.6607C27.7952 20.292 28.9413 16.0544 32.291 13.3598C35.6408 10.6653 39.9841 10.3858 42.0448 12.7545C44.1055 15.1231 42.9595 19.3608 39.6097 22.0553Z" fill="#FF6E9F"/>
<path d="M40.9499 23.947C36.733 25.213 34.3128 28.4608 35.4422 31.2799C36.5715 34.099 40.8135 35.3431 45.0303 34.0772C49.2472 32.8113 51.6674 29.5634 50.538 26.7443C49.4087 23.9252 45.1667 22.6811 40.9499 23.947Z" fill="#FF6E9F"/>
</svg>
