<svg width="190.767151" height="123.000000" viewBox="0 0 190.767 123" fill="none" xmlns="http://www.w3.org/2000/svg" xmlns:xlink="http://www.w3.org/1999/xlink">
	<desc>
			Created with Pixso.
	</desc>
	<defs/>
	<path id="Vector 2" d="M52.01 3.65C-8.34 21.98 0.44 52.14 0.44 52.14C0.44 52.14 4.83 94.91 52.01 114.47C99.19 134.02 127.17 118.95 178.19 79.43C229.21 39.91 112.36 -14.68 52.01 3.65Z" fill="#839AA9" fill-opacity="1.000000" fill-rule="evenodd"/>
	<path id="Vector" d="M108.07 46.9C108.04 47.2 107.83 47.52 107.34 47.85C102.53 51.06 97.73 54.28 92.92 57.5C91.9 58.19 89.46 58.35 89.46 56.73C89.46 50.78 89.46 44.82 89.46 38.87C89.46 37.41 92.08 37.05 93.12 37.64C97.93 40.38 102.73 43.11 107.54 45.85C108.09 46.16 108.21 46.54 108.07 46.9ZM124.41 51.98C122.89 82.79 61.36 76.4 68.04 43.97C70.84 30.36 84.23 23.2 98.94 24.06C115.51 25.04 124.11 37.75 124.41 51.77C124.41 51.81 124.38 51.84 124.38 51.87C124.38 51.91 124.41 51.93 124.41 51.98ZM121.32 52.37C121.07 42.45 116.9 31.73 106.14 27.46C91.88 21.81 75.07 28.48 71.45 42.22C68.21 54.51 75.42 65.41 88.61 69.35C102.67 73.55 120.55 66.94 121.32 52.37Z" fill="#FFFFFF" fill-opacity="1.000000" fill-rule="nonzero"/>
	<path id="Learn more" d="M56.17 93.77L50.41 93.77L50.41 83.62L48.8 83.62L48.8 95L56.17 95L56.17 93.77ZM59.4 94.67Q60.31 95.15 61.51 95.15Q62.86 95.15 63.81 94.57Q64.45 94.18 64.91 93.52L63.97 92.83Q63.6 93.28 63.11 93.58Q63.05 93.62 62.98 93.66Q62.41 93.97 61.59 93.97Q60.95 93.97 60.44 93.73Q60.02 93.54 59.69 93.2Q59.58 93.09 59.49 92.97Q58.94 92.25 58.91 91.18L65.03 91.18L65.03 90.58Q65.03 88.56 64.05 87.47Q63.77 87.15 63.41 86.92Q62.56 86.39 61.32 86.39Q60.84 86.39 60.4 86.49Q59.84 86.63 59.32 86.94Q59.06 87.1 58.84 87.28Q58.25 87.77 57.88 88.49Q57.37 89.48 57.37 90.74L57.37 91Q57.37 92.57 58.15 93.61Q58.32 93.83 58.52 94.02Q58.92 94.41 59.4 94.67ZM72.18 94.1Q72.26 94.75 72.39 95L74.01 95L74.01 94.87Q73.7 94.18 73.7 93.02L73.7 89.13Q73.67 88.2 73.2 87.56Q73.02 87.32 72.78 87.12Q72.77 87.11 72.76 87.1Q71.88 86.39 70.33 86.39Q69.35 86.39 68.54 86.73Q68.53 86.73 68.52 86.73Q67.71 87.07 67.23 87.65Q67.23 87.66 67.22 87.66Q66.81 88.17 66.75 88.72Q66.74 88.8 66.74 88.89L68.29 88.89Q68.29 88.72 68.35 88.57Q68.46 88.21 68.85 87.94Q68.91 87.9 68.97 87.87Q69.5 87.55 70.24 87.55Q71.17 87.55 71.65 87.98Q71.66 87.99 71.67 88Q71.77 88.1 71.86 88.21Q72.15 88.62 72.15 89.21L72.15 89.87L70.65 89.87Q68.7 89.87 67.63 90.6Q67.17 90.91 66.91 91.33Q66.56 91.89 66.56 92.65Q66.56 93.22 66.79 93.69Q67.01 94.11 67.41 94.44Q67.58 94.59 67.78 94.7Q68.54 95.15 69.61 95.15Q70.26 95.15 70.83 94.95Q71.57 94.69 72.18 94.1ZM79.72 87.78Q80.13 87.78 80.48 87.84L80.48 86.5Q80.25 86.39 79.8 86.39Q79.14 86.39 78.62 86.64Q78.04 86.92 77.64 87.52L77.62 86.54L76.12 86.54L76.12 95L77.66 95L77.66 89Q77.9 88.47 78.32 88.17Q78.87 87.78 79.72 87.78ZM83.41 87.6L83.36 86.54L81.9 86.54L81.9 95L83.45 95L83.45 88.97Q83.66 88.57 83.98 88.26Q84.14 88.11 84.33 87.99Q84.5 87.88 84.68 87.8Q85.12 87.61 85.65 87.61Q86.57 87.61 87.01 88.04Q87.01 88.05 87.02 88.05Q87.45 88.49 87.46 89.4L87.46 95L89.01 95L89.01 89.41Q88.99 87.71 88.09 86.97Q87.38 86.39 86.12 86.39Q85.28 86.39 84.59 86.7Q83.93 87 83.41 87.6ZM97.06 87.48L97.02 86.54L95.56 86.54L95.56 95L97.1 95L97.1 88.82Q97.35 88.29 97.78 87.99Q98.33 87.61 99.18 87.61Q100.13 87.61 100.61 88.05Q101.11 88.51 101.11 89.46L101.11 95L102.67 95L102.67 89.39Q102.73 88.78 103.07 88.35Q103.18 88.21 103.32 88.09Q103.48 87.96 103.67 87.86Q104.13 87.61 104.75 87.61Q105.8 87.61 106.24 88.06Q106.68 88.51 106.68 89.42L106.68 95L108.23 95L108.23 89.33Q108.2 87.77 107.35 87.04Q106.6 86.39 105.2 86.39Q104.22 86.39 103.5 86.76Q102.99 87.02 102.62 87.4Q102.46 87.56 102.32 87.75Q102.08 87.26 101.68 86.95Q100.96 86.39 99.74 86.39Q98.68 86.39 97.89 86.82Q97.43 87.08 97.06 87.48ZM110.67 88.46Q110.15 89.45 110.15 90.69L110.15 90.79Q110.15 92.52 111.02 93.65Q111.15 93.81 111.28 93.96Q111.74 94.43 112.29 94.71Q113.15 95.15 114.26 95.15Q115.25 95.15 116.06 94.79Q116.24 94.71 116.42 94.6Q116.74 94.42 117.01 94.18Q117.53 93.72 117.86 93.08Q118.37 92.1 118.37 90.86L118.37 90.76Q118.37 89 117.47 87.85Q117.35 87.71 117.23 87.58Q116.79 87.12 116.24 86.83Q115.37 86.39 114.24 86.39Q113.31 86.39 112.54 86.72Q112.32 86.81 112.12 86.92Q111.88 87.06 111.67 87.23Q111.06 87.72 110.67 88.46ZM123.91 87.78Q124.32 87.78 124.67 87.84L124.67 86.5Q124.44 86.39 123.99 86.39Q123.33 86.39 122.81 86.64Q122.23 86.92 121.83 87.52L121.81 86.54L120.31 86.54L120.31 95L121.85 95L121.85 89Q122.09 88.47 122.51 88.17Q123.05 87.78 123.91 87.78ZM127.57 94.67Q128.48 95.15 129.68 95.15Q131.03 95.15 131.98 94.57Q132.63 94.18 133.09 93.52L132.14 92.83Q131.77 93.28 131.28 93.58Q131.22 93.62 131.15 93.66Q130.58 93.97 129.76 93.97Q129.12 93.97 128.61 93.73Q128.2 93.54 127.86 93.2Q127.76 93.09 127.66 92.97Q127.11 92.25 127.08 91.18L133.2 91.18L133.2 90.58Q133.2 88.56 132.23 87.47Q131.94 87.15 131.58 86.92Q130.73 86.39 129.49 86.39Q129.02 86.39 128.58 86.49Q128.01 86.63 127.49 86.94Q127.24 87.1 127.02 87.28Q126.43 87.77 126.05 88.49Q125.54 89.48 125.54 90.74L125.54 91Q125.54 92.57 126.33 93.61Q126.49 93.83 126.69 94.02Q127.09 94.41 127.57 94.67ZM60.44 87.74Q60.84 87.57 61.32 87.57Q61.96 87.57 62.43 87.85Q62.66 87.98 62.85 88.18Q63.42 88.78 63.49 89.89L63.49 90L58.96 90Q59.11 88.85 59.75 88.21Q60.06 87.9 60.44 87.74ZM112.4 93.12Q111.7 92.27 111.7 90.86Q111.7 89.28 112.4 88.42Q112.75 87.99 113.22 87.78Q113.68 87.57 114.24 87.57Q114.84 87.57 115.31 87.8Q115.77 88.01 116.12 88.44Q116.82 89.3 116.82 90.69Q116.82 92.25 116.13 93.11Q115.8 93.52 115.36 93.73Q114.88 93.97 114.26 93.97Q113.65 93.97 113.16 93.74Q112.73 93.52 112.4 93.12ZM128.62 87.74Q129.01 87.57 129.49 87.57Q130.14 87.57 130.61 87.85Q130.84 87.98 131.02 88.18Q131.59 88.78 131.66 89.89L131.66 90L127.13 90Q127.28 88.85 127.92 88.21Q128.23 87.9 128.62 87.74ZM70.36 93.85Q70.1 93.89 69.83 93.89Q69.18 93.89 68.73 93.61Q68.65 93.56 68.59 93.51Q68.44 93.39 68.33 93.24Q68.1 92.92 68.1 92.45Q68.1 92.05 68.29 91.76Q68.83 90.89 70.94 90.89L72.15 90.89L72.15 92.63Q72.1 92.72 72.04 92.81Q71.75 93.25 71.21 93.54Q70.8 93.76 70.36 93.85Z" fill="#FFFFFF" fill-opacity="1.000000" fill-rule="evenodd"/>
</svg>
